<svg width="13" height="13" viewBox="0 0 13 13" fill="none" xmlns="http://www.w3.org/2000/svg">
<path d="M6.39743 0.375977L7.3448 0.375977C7.42901 0.375977 7.47112 0.420421 7.47112 0.50931L7.47112 12.2426C7.47112 12.3315 7.42901 12.376 7.3448 12.376H6.39743C6.31322 12.376 6.27112 12.3315 6.27112 12.2426L6.27112 0.50931C6.27112 0.420421 6.31322 0.375977 6.39743 0.375977Z" fill="black"/>
<path d="M0.996835 5.99683L12.7178 5.99683C12.8108 5.99683 12.8573 6.03893 12.8573 6.12314V7.07051C12.8573 7.15472 12.8108 7.19683 12.7178 7.19683L0.996835 7.19683C0.903811 7.19683 0.8573 7.15472 0.8573 7.07051L0.8573 6.12314C0.8573 6.03893 0.903811 5.99683 0.996835 5.99683Z" fill="black"/>
</svg>
