<svg width="42" height="43" viewBox="0 0 42 43" fill="none" xmlns="http://www.w3.org/2000/svg">
<path d="M41.0534 1.025C40.8939 0.7178 40.6537 0.459975 40.3587 0.279325C40.0634 0.0986753 39.7244 0.0021 39.3784 0H1.87843C1.53236 0.0021 1.19343 0.0986753 0.898235 0.279325C0.603035 0.459975 0.362809 0.7178 0.203434 1.025C0.0443342 1.33308 -0.0236908 1.6801 0.00730925 2.02545C0.0383093 2.3708 0.167035 2.70018 0.378435 2.975L13.7534 21.25V40.625C13.7599 41.1202 13.9595 41.5935 14.3098 41.9437C14.66 42.294 15.1332 42.4935 15.6284 42.5H25.6284C26.1237 42.4935 26.5969 42.294 26.9472 41.9437C27.2974 41.5935 27.4969 41.1202 27.5034 40.625V21.25L40.8784 2.975C41.0899 2.70018 41.2184 2.3708 41.2494 2.02545C41.2804 1.6801 41.2124 1.33308 41.0534 1.025Z" fill="black"/>
</svg>
